# Blender v2.90.1 OBJ File: ''
# www.blender.org
mtllib WingsDemon.mtl
o ObjObject
v -0.232874 0.203486 0.298985
v -0.232874 0.103486 0.198985
v -0.232874 0.103486 0.298985
v -0.232874 0.203486 0.198985
v -0.232874 0.203486 -0.201015
v -0.232874 0.103486 -0.301015
v -0.232874 0.103486 -0.201015
v -0.232874 0.203486 -0.301015
v -0.232874 0.303486 0.298985
v -0.232874 0.303486 0.198985
v -0.232874 0.303486 -0.201015
v -0.232874 0.303486 -0.301015
v -0.132874 0.103486 0.298985
v -0.132874 0.003486 0.198985
v -0.132874 0.003486 0.298985
v -0.132874 0.103486 0.198985
v -0.132874 0.103486 -0.201015
v -0.132874 0.003486 -0.301015
v -0.132874 0.003486 -0.201015
v -0.132874 0.103486 -0.301015
v -0.132874 0.403486 0.298985
v -0.132874 0.303486 0.198985
v -0.132874 0.303486 0.298985
v -0.132874 0.403486 0.198985
v -0.132874 0.403486 -0.201015
v -0.132874 0.303486 -0.301015
v -0.132874 0.303486 -0.201015
v -0.132874 0.403486 -0.301015
v 0.067126 0.503486 0.298985
v 0.067126 0.403486 0.198985
v 0.067126 0.403486 0.298985
v 0.067126 0.503486 0.198985
v 0.067126 0.503486 -0.201015
v 0.067126 0.403486 -0.301015
v 0.067126 0.403486 -0.201015
v 0.067126 0.503486 -0.301015
v 0.167126 0.003486 0.298985
v 0.167126 0.003486 0.198985
v 0.167126 0.103486 0.298985
v 0.167126 0.103486 0.198985
v 0.167126 0.003486 -0.201015
v 0.167126 0.003486 -0.301015
v 0.167126 0.103486 -0.201015
v 0.167126 0.103486 -0.301015
v 0.267126 0.103486 0.298985
v 0.267126 0.103486 0.198985
v 0.267126 0.203486 0.298985
v 0.267126 0.203486 0.198985
v 0.267126 0.103486 -0.201015
v 0.267126 0.103486 -0.301015
v 0.267126 0.203486 -0.201015
v 0.267126 0.203486 -0.301015
v 0.367126 0.203486 0.298985
v 0.367126 0.203486 0.198985
v 0.367126 0.303486 0.298985
v 0.367126 0.303486 0.198985
v 0.367126 0.203486 -0.201015
v 0.367126 0.203486 -0.301015
v 0.367126 0.303486 -0.201015
v 0.367126 0.303486 -0.301015
v 0.467126 0.303486 0.298985
v 0.467126 0.303486 0.198985
v 0.467126 0.503486 0.298985
v 0.467126 0.503486 0.198985
v 0.467126 0.303486 -0.201015
v 0.467126 0.303486 -0.301015
v 0.467126 0.503486 -0.201015
v 0.467126 0.503486 -0.301015
v -0.132874 0.103486 0.298985
v -0.232874 0.203486 0.298985
v -0.232874 0.103486 0.298985
v -0.132874 0.203486 0.298985
v -0.232874 0.303486 0.298985
v -0.132874 0.303486 0.298985
v 0.067126 0.203486 0.298985
v 0.067126 0.303486 0.298985
v -0.132874 0.403486 0.298985
v 0.067126 0.403486 0.298985
v 0.167126 0.003486 0.298985
v -0.132874 0.003486 0.298985
v 0.167126 0.103486 0.298985
v 0.167126 0.203486 0.298985
v 0.067126 0.503486 0.298985
v 0.267126 0.103486 0.298985
v 0.267126 0.203486 0.298985
v 0.367126 0.203486 0.298985
v 0.367126 0.303486 0.298985
v 0.467126 0.303486 0.298985
v 0.467126 0.503486 0.298985
v -0.132874 0.103486 -0.201015
v -0.232874 0.203486 -0.201015
v -0.232874 0.103486 -0.201015
v -0.132874 0.203486 -0.201015
v -0.232874 0.303486 -0.201015
v -0.132874 0.303486 -0.201015
v 0.067126 0.203486 -0.201015
v 0.067126 0.303486 -0.201015
v -0.132874 0.403486 -0.201015
v 0.067126 0.403486 -0.201015
v 0.167126 0.003486 -0.201015
v -0.132874 0.003486 -0.201015
v 0.167126 0.103486 -0.201015
v 0.167126 0.203486 -0.201015
v 0.067126 0.503486 -0.201015
v 0.267126 0.103486 -0.201015
v 0.267126 0.203486 -0.201015
v 0.367126 0.203486 -0.201015
v 0.367126 0.303486 -0.201015
v 0.467126 0.303486 -0.201015
v 0.467126 0.503486 -0.201015
v -0.232874 0.103486 0.198985
v -0.232874 0.203486 0.198985
v -0.132874 0.103486 0.198985
v -0.232874 0.303486 0.198985
v -0.132874 0.203486 0.198985
v -0.132874 0.303486 0.198985
v 0.067126 0.203486 0.198985
v -0.132874 0.403486 0.198985
v 0.067126 0.303486 0.198985
v 0.067126 0.403486 0.198985
v -0.132874 0.003486 0.198985
v 0.167126 0.003486 0.198985
v 0.167126 0.103486 0.198985
v 0.067126 0.503486 0.198985
v 0.167126 0.203486 0.198985
v 0.267126 0.103486 0.198985
v 0.267126 0.203486 0.198985
v 0.367126 0.203486 0.198985
v 0.367126 0.303486 0.198985
v 0.467126 0.303486 0.198985
v 0.467126 0.503486 0.198985
v -0.232874 0.103486 -0.301015
v -0.232874 0.203486 -0.301015
v -0.132874 0.103486 -0.301015
v -0.232874 0.303486 -0.301015
v -0.132874 0.203486 -0.301015
v -0.132874 0.303486 -0.301015
v 0.067126 0.203486 -0.301015
v -0.132874 0.403486 -0.301015
v 0.067126 0.303486 -0.301015
v 0.067126 0.403486 -0.301015
v -0.132874 0.003486 -0.301015
v 0.167126 0.003486 -0.301015
v 0.167126 0.103486 -0.301015
v 0.067126 0.503486 -0.301015
v 0.167126 0.203486 -0.301015
v 0.267126 0.103486 -0.301015
v 0.267126 0.203486 -0.301015
v 0.367126 0.203486 -0.301015
v 0.367126 0.303486 -0.301015
v 0.467126 0.303486 -0.301015
v 0.467126 0.503486 -0.301015
v -0.132874 0.003486 0.198985
v 0.167126 0.003486 0.298985
v -0.132874 0.003486 0.298985
v 0.167126 0.003486 0.198985
v -0.132874 0.003486 -0.301015
v 0.167126 0.003486 -0.201015
v -0.132874 0.003486 -0.201015
v 0.167126 0.003486 -0.301015
v -0.232874 0.103486 0.198985
v -0.132874 0.103486 0.298985
v -0.232874 0.103486 0.298985
v -0.132874 0.103486 0.198985
v 0.167126 0.103486 0.198985
v 0.267126 0.103486 0.298985
v 0.167126 0.103486 0.298985
v 0.267126 0.103486 0.198985
v -0.232874 0.103486 -0.301015
v -0.132874 0.103486 -0.201015
v -0.232874 0.103486 -0.201015
v -0.132874 0.103486 -0.301015
v 0.167126 0.103486 -0.301015
v 0.267126 0.103486 -0.201015
v 0.167126 0.103486 -0.201015
v 0.267126 0.103486 -0.301015
v 0.267126 0.203486 0.198985
v 0.367126 0.203486 0.298985
v 0.267126 0.203486 0.298985
v 0.367126 0.203486 0.198985
v 0.267126 0.203486 -0.301015
v 0.367126 0.203486 -0.201015
v 0.267126 0.203486 -0.201015
v 0.367126 0.203486 -0.301015
v 0.367126 0.303486 0.198985
v 0.467126 0.303486 0.298985
v 0.367126 0.303486 0.298985
v 0.467126 0.303486 0.198985
v 0.367126 0.303486 -0.301015
v 0.467126 0.303486 -0.201015
v 0.367126 0.303486 -0.201015
v 0.467126 0.303486 -0.301015
v -0.232874 0.303486 0.298985
v -0.132874 0.303486 0.298985
v -0.232874 0.303486 0.198985
v -0.132874 0.303486 0.198985
v -0.232874 0.303486 -0.201015
v -0.132874 0.303486 -0.201015
v -0.232874 0.303486 -0.301015
v -0.132874 0.303486 -0.301015
v -0.132874 0.403486 0.298985
v 0.067126 0.403486 0.298985
v -0.132874 0.403486 0.198985
v 0.067126 0.403486 0.198985
v -0.132874 0.403486 -0.201015
v 0.067126 0.403486 -0.201015
v -0.132874 0.403486 -0.301015
v 0.067126 0.403486 -0.301015
v 0.067126 0.503486 0.298985
v 0.467126 0.503486 0.298985
v 0.067126 0.503486 0.198985
v 0.467126 0.503486 0.198985
v 0.067126 0.503486 -0.201015
v 0.467126 0.503486 -0.201015
v 0.067126 0.503486 -0.301015
v 0.467126 0.503486 -0.301015
vt 0.861328 0.500000
vt 0.861328 0.500000
vt 0.861328 0.500000
vt 0.861328 0.500000
vt 0.861328 0.500000
vt 0.861328 0.500000
vt 0.861328 0.500000
vt 0.861328 0.500000
vt 0.962891 0.500000
vt 0.962891 0.500000
vt 0.962891 0.500000
vt 0.962891 0.500000
vt 0.962891 0.500000
vt 0.962891 0.500000
vt 0.962891 0.500000
vt 0.962891 0.500000
vt 0.861328 0.500000
vt 0.861328 0.500000
vt 0.861328 0.500000
vt 0.861328 0.500000
vt 0.861328 0.500000
vt 0.861328 0.500000
vt 0.861328 0.500000
vt 0.861328 0.500000
vt 0.958984 0.500000
vt 0.958984 0.500000
vt 0.958984 0.500000
vt 0.958984 0.500000
vt 0.958984 0.500000
vt 0.958984 0.500000
vt 0.958984 0.500000
vt 0.958984 0.500000
vt 0.958984 0.500000
vt 0.958984 0.500000
vt 0.958984 0.500000
vt 0.958984 0.500000
vt 0.958984 0.500000
vt 0.958984 0.500000
vt 0.958984 0.500000
vt 0.958984 0.500000
vt 0.861328 0.500000
vt 0.861328 0.500000
vt 0.861328 0.500000
vt 0.861328 0.500000
vt 0.861328 0.500000
vt 0.861328 0.500000
vt 0.861328 0.500000
vt 0.861328 0.500000
vt 0.861328 0.500000
vt 0.861328 0.500000
vt 0.861328 0.500000
vt 0.861328 0.500000
vt 0.861328 0.500000
vt 0.861328 0.500000
vt 0.861328 0.500000
vt 0.861328 0.500000
vt 0.958984 0.500000
vt 0.958984 0.500000
vt 0.958984 0.500000
vt 0.958984 0.500000
vt 0.958984 0.500000
vt 0.958984 0.500000
vt 0.958984 0.500000
vt 0.958984 0.500000
vt 0.958984 0.500000
vt 0.958984 0.500000
vt 0.958984 0.500000
vt 0.958984 0.500000
vt 0.958984 0.500000
vt 0.958984 0.500000
vt 0.958984 0.500000
vt 0.958984 0.500000
vt 0.861328 0.500000
vt 0.861328 0.500000
vt 0.861328 0.500000
vt 0.962891 0.500000
vt 0.962891 0.500000
vt 0.962891 0.500000
vt 0.861328 0.500000
vt 0.962891 0.500000
vt 0.962891 0.500000
vt 0.962891 0.500000
vt 0.958984 0.500000
vt 0.958984 0.500000
vt 0.958984 0.500000
vt 0.962891 0.500000
vt 0.958984 0.500000
vt 0.861328 0.500000
vt 0.861328 0.500000
vt 0.962891 0.500000
vt 0.861328 0.500000
vt 0.958984 0.500000
vt 0.958984 0.500000
vt 0.962891 0.500000
vt 0.958984 0.500000
vt 0.861328 0.500000
vt 0.861328 0.500000
vt 0.958984 0.500000
vt 0.861328 0.500000
vt 0.958984 0.500000
vt 0.958984 0.500000
vt 0.958984 0.500000
vt 0.958984 0.500000
vt 0.861328 0.500000
vt 0.861328 0.500000
vt 0.861328 0.500000
vt 0.962891 0.500000
vt 0.962891 0.500000
vt 0.962891 0.500000
vt 0.861328 0.500000
vt 0.962891 0.500000
vt 0.962891 0.500000
vt 0.962891 0.500000
vt 0.958984 0.500000
vt 0.958984 0.500000
vt 0.958984 0.500000
vt 0.962891 0.500000
vt 0.958984 0.500000
vt 0.861328 0.500000
vt 0.861328 0.500000
vt 0.962891 0.500000
vt 0.861328 0.500000
vt 0.958984 0.500000
vt 0.958984 0.500000
vt 0.962891 0.500000
vt 0.958984 0.500000
vt 0.861328 0.500000
vt 0.861328 0.500000
vt 0.958984 0.500000
vt 0.861328 0.500000
vt 0.958984 0.500000
vt 0.958984 0.500000
vt 0.958984 0.500000
vt 0.958984 0.500000
vt 0.861328 0.500000
vt 0.861328 0.500000
vt 0.861328 0.500000
vt 0.962891 0.500000
vt 0.962891 0.500000
vt 0.962891 0.500000
vt 0.861328 0.500000
vt 0.962891 0.500000
vt 0.962891 0.500000
vt 0.962891 0.500000
vt 0.958984 0.500000
vt 0.958984 0.500000
vt 0.958984 0.500000
vt 0.962891 0.500000
vt 0.958984 0.500000
vt 0.861328 0.500000
vt 0.861328 0.500000
vt 0.962891 0.500000
vt 0.861328 0.500000
vt 0.958984 0.500000
vt 0.958984 0.500000
vt 0.962891 0.500000
vt 0.958984 0.500000
vt 0.861328 0.500000
vt 0.861328 0.500000
vt 0.958984 0.500000
vt 0.861328 0.500000
vt 0.958984 0.500000
vt 0.958984 0.500000
vt 0.958984 0.500000
vt 0.958984 0.500000
vt 0.861328 0.500000
vt 0.861328 0.500000
vt 0.861328 0.500000
vt 0.962891 0.500000
vt 0.962891 0.500000
vt 0.962891 0.500000
vt 0.861328 0.500000
vt 0.962891 0.500000
vt 0.962891 0.500000
vt 0.962891 0.500000
vt 0.958984 0.500000
vt 0.958984 0.500000
vt 0.958984 0.500000
vt 0.962891 0.500000
vt 0.958984 0.500000
vt 0.861328 0.500000
vt 0.861328 0.500000
vt 0.962891 0.500000
vt 0.861328 0.500000
vt 0.958984 0.500000
vt 0.958984 0.500000
vt 0.962891 0.500000
vt 0.958984 0.500000
vt 0.861328 0.500000
vt 0.861328 0.500000
vt 0.958984 0.500000
vt 0.861328 0.500000
vt 0.958984 0.500000
vt 0.958984 0.500000
vt 0.958984 0.500000
vt 0.958984 0.500000
vt 0.861328 0.500000
vt 0.861328 0.500000
vt 0.861328 0.500000
vt 0.861328 0.500000
vt 0.861328 0.500000
vt 0.861328 0.500000
vt 0.861328 0.500000
vt 0.861328 0.500000
vt 0.861328 0.500000
vt 0.861328 0.500000
vt 0.861328 0.500000
vt 0.861328 0.500000
vt 0.861328 0.500000
vt 0.861328 0.500000
vt 0.861328 0.500000
vt 0.861328 0.500000
vt 0.861328 0.500000
vt 0.861328 0.500000
vt 0.861328 0.500000
vt 0.861328 0.500000
vt 0.861328 0.500000
vt 0.861328 0.500000
vt 0.861328 0.500000
vt 0.861328 0.500000
vt 0.958984 0.500000
vt 0.958984 0.500000
vt 0.958984 0.500000
vt 0.958984 0.500000
vt 0.958984 0.500000
vt 0.958984 0.500000
vt 0.958984 0.500000
vt 0.958984 0.500000
vt 0.958984 0.500000
vt 0.958984 0.500000
vt 0.958984 0.500000
vt 0.958984 0.500000
vt 0.958984 0.500000
vt 0.958984 0.500000
vt 0.958984 0.500000
vt 0.958984 0.500000
vt 0.962891 0.500000
vt 0.962891 0.500000
vt 0.962891 0.500000
vt 0.962891 0.500000
vt 0.962891 0.500000
vt 0.962891 0.500000
vt 0.962891 0.500000
vt 0.962891 0.500000
vt 0.958984 0.500000
vt 0.958984 0.500000
vt 0.958984 0.500000
vt 0.958984 0.500000
vt 0.958984 0.500000
vt 0.958984 0.500000
vt 0.958984 0.500000
vt 0.958984 0.500000
vt 0.958984 0.500000
vt 0.958984 0.500000
vt 0.958984 0.500000
vt 0.958984 0.500000
vt 0.958984 0.500000
vt 0.958984 0.500000
vt 0.958984 0.500000
vt 0.958984 0.500000
vn -1.0000 0.0000 0.0000
vn 1.0000 0.0000 0.0000
vn 0.0000 -0.0000 1.0000
vn 0.0000 0.0000 -1.0000
vn 0.0000 -1.0000 -0.0000
vn 0.0000 1.0000 0.0000
usemtl palette
s 1
f 1/1/1 2/2/1 3/3/1
f 4/4/1 2/2/1 1/1/1
f 5/5/1 6/6/1 7/7/1
f 8/8/1 6/6/1 5/5/1
f 9/9/1 4/10/1 1/11/1
f 10/12/1 4/10/1 9/9/1
f 11/13/1 8/14/1 5/15/1
f 12/16/1 8/14/1 11/13/1
f 13/17/1 14/18/1 15/19/1
f 16/20/1 14/18/1 13/17/1
f 17/21/1 18/22/1 19/23/1
f 20/24/1 18/22/1 17/21/1
f 21/25/1 22/26/1 23/27/1
f 24/28/1 22/26/1 21/25/1
f 25/29/1 26/30/1 27/31/1
f 28/32/1 26/30/1 25/29/1
f 29/33/1 30/34/1 31/35/1
f 32/36/1 30/34/1 29/33/1
f 33/37/1 34/38/1 35/39/1
f 36/40/1 34/38/1 33/37/1
f 37/41/2 38/42/2 39/43/2
f 39/43/2 38/42/2 40/44/2
f 41/45/2 42/46/2 43/47/2
f 43/47/2 42/46/2 44/48/2
f 45/49/2 46/50/2 47/51/2
f 47/51/2 46/50/2 48/52/2
f 49/53/2 50/54/2 51/55/2
f 51/55/2 50/54/2 52/56/2
f 53/57/2 54/58/2 55/59/2
f 55/59/2 54/58/2 56/60/2
f 57/61/2 58/62/2 59/63/2
f 59/63/2 58/62/2 60/64/2
f 61/65/2 62/66/2 63/67/2
f 63/67/2 62/66/2 64/68/2
f 65/69/2 66/70/2 67/71/2
f 67/71/2 66/70/2 68/72/2
f 69/73/3 70/74/3 71/75/3
f 72/76/3 73/77/3 70/78/3
f 72/79/3 70/74/3 69/73/3
f 74/80/3 73/77/3 72/76/3
f 75/81/3 72/76/3 69/82/3
f 75/81/3 74/80/3 72/76/3
f 76/83/3 77/84/3 74/85/3
f 76/86/3 74/80/3 75/81/3
f 78/87/3 77/84/3 76/83/3
f 79/88/3 69/73/3 80/89/3
f 81/90/3 75/81/3 69/82/3
f 81/91/3 69/73/3 79/88/3
f 82/92/3 83/93/3 78/87/3
f 82/94/3 75/81/3 81/90/3
f 82/92/3 76/83/3 75/95/3
f 82/92/3 78/87/3 76/83/3
f 84/96/3 82/97/3 81/91/3
f 85/98/3 83/93/3 82/92/3
f 85/99/3 82/97/3 84/96/3
f 86/100/3 83/93/3 85/98/3
f 87/101/3 83/93/3 86/100/3
f 88/102/3 83/93/3 87/101/3
f 89/103/3 83/93/3 88/102/3
f 90/104/3 91/105/3 92/106/3
f 93/107/3 94/108/3 91/109/3
f 93/110/3 91/105/3 90/104/3
f 95/111/3 94/108/3 93/107/3
f 96/112/3 93/107/3 90/113/3
f 96/112/3 95/111/3 93/107/3
f 97/114/3 98/115/3 95/116/3
f 97/117/3 95/111/3 96/112/3
f 99/118/3 98/115/3 97/114/3
f 100/119/3 90/104/3 101/120/3
f 102/121/3 96/112/3 90/113/3
f 102/122/3 90/104/3 100/119/3
f 103/123/3 104/124/3 99/118/3
f 103/125/3 96/112/3 102/121/3
f 103/123/3 97/114/3 96/126/3
f 103/123/3 99/118/3 97/114/3
f 105/127/3 103/128/3 102/122/3
f 106/129/3 104/124/3 103/123/3
f 106/130/3 103/128/3 105/127/3
f 107/131/3 104/124/3 106/129/3
f 108/132/3 104/124/3 107/131/3
f 109/133/3 104/124/3 108/132/3
f 110/134/3 104/124/3 109/133/3
f 111/135/4 112/136/4 113/137/4
f 112/138/4 114/139/4 115/140/4
f 113/137/4 112/136/4 115/141/4
f 115/140/4 114/139/4 116/142/4
f 113/143/4 115/140/4 117/144/4
f 115/140/4 116/142/4 117/144/4
f 116/145/4 118/146/4 119/147/4
f 117/144/4 116/142/4 119/148/4
f 119/147/4 118/146/4 120/149/4
f 121/150/4 113/137/4 122/151/4
f 113/143/4 117/144/4 123/152/4
f 122/151/4 113/137/4 123/153/4
f 120/149/4 124/154/4 125/155/4
f 123/152/4 117/144/4 125/156/4
f 117/157/4 119/147/4 125/155/4
f 119/147/4 120/149/4 125/155/4
f 123/153/4 125/158/4 126/159/4
f 125/155/4 124/154/4 127/160/4
f 126/159/4 125/158/4 127/161/4
f 127/160/4 124/154/4 128/162/4
f 128/162/4 124/154/4 129/163/4
f 129/163/4 124/154/4 130/164/4
f 130/164/4 124/154/4 131/165/4
f 132/166/4 133/167/4 134/168/4
f 133/169/4 135/170/4 136/171/4
f 134/168/4 133/167/4 136/172/4
f 136/171/4 135/170/4 137/173/4
f 134/174/4 136/171/4 138/175/4
f 136/171/4 137/173/4 138/175/4
f 137/176/4 139/177/4 140/178/4
f 138/175/4 137/173/4 140/179/4
f 140/178/4 139/177/4 141/180/4
f 142/181/4 134/168/4 143/182/4
f 134/174/4 138/175/4 144/183/4
f 143/182/4 134/168/4 144/184/4
f 141/180/4 145/185/4 146/186/4
f 144/183/4 138/175/4 146/187/4
f 138/188/4 140/178/4 146/186/4
f 140/178/4 141/180/4 146/186/4
f 144/184/4 146/189/4 147/190/4
f 146/186/4 145/185/4 148/191/4
f 147/190/4 146/189/4 148/192/4
f 148/191/4 145/185/4 149/193/4
f 149/193/4 145/185/4 150/194/4
f 150/194/4 145/185/4 151/195/4
f 151/195/4 145/185/4 152/196/4
f 153/197/5 154/198/5 155/199/5
f 156/200/5 154/198/5 153/197/5
f 157/201/5 158/202/5 159/203/5
f 160/204/5 158/202/5 157/201/5
f 161/205/5 162/206/5 163/207/5
f 164/208/5 162/206/5 161/205/5
f 165/209/5 166/210/5 167/211/5
f 168/212/5 166/210/5 165/209/5
f 169/213/5 170/214/5 171/215/5
f 172/216/5 170/214/5 169/213/5
f 173/217/5 174/218/5 175/219/5
f 176/220/5 174/218/5 173/217/5
f 177/221/5 178/222/5 179/223/5
f 180/224/5 178/222/5 177/221/5
f 181/225/5 182/226/5 183/227/5
f 184/228/5 182/226/5 181/225/5
f 185/229/5 186/230/5 187/231/5
f 188/232/5 186/230/5 185/229/5
f 189/233/5 190/234/5 191/235/5
f 192/236/5 190/234/5 189/233/5
f 193/237/6 194/238/6 195/239/6
f 195/239/6 194/238/6 196/240/6
f 197/241/6 198/242/6 199/243/6
f 199/243/6 198/242/6 200/244/6
f 201/245/6 202/246/6 203/247/6
f 203/247/6 202/246/6 204/248/6
f 205/249/6 206/250/6 207/251/6
f 207/251/6 206/250/6 208/252/6
f 209/253/6 210/254/6 211/255/6
f 211/255/6 210/254/6 212/256/6
f 213/257/6 214/258/6 215/259/6
f 215/259/6 214/258/6 216/260/6
